<svg data-v-fde0c5aa="" xmlns="http://www.w3.org/2000/svg" viewBox="0 0 300 300" class="icon"><!----><defs data-v-fde0c5aa=""><!----></defs><rect data-v-fde0c5aa="" fill="transparent" x="0" y="0" width="300px" height="300px" class="logo-background-square"></rect><!----><defs data-v-fde0c5aa=""><linearGradient data-v-fde0c5aa="" gradientTransform="rotate(25)" id="f9f86c5a-8cd1-4443-a6dc-1e74b3ca350a" x1="0%" y1="0%" x2="100%" y2="0%"><stop data-v-fde0c5aa="" offset="0%" stop-color="#4E1A70" stop-opacity="1"></stop><stop data-v-fde0c5aa="" offset="100%" stop-color="#2B4CF2" stop-opacity="1"></stop></linearGradient></defs><g data-v-fde0c5aa="" id="635a8412-09eb-4235-a725-dd8e7f96d320" fill="url(#f9f86c5a-8cd1-4443-a6dc-1e74b3ca350a)" stroke="none" transform="matrix(2.39260495438584,0,0,2.39260495438584,33.12126075614072,38.722329751016204)"><path d="M40.797 31.038l18.51 2.669 3.345-26.929-14.724 7.879"></path><path d="M16.497 34.623l8.602-19.695 16.071-8.15-2.716 26.034 26.487 3.848 6.34 9.961 23.544 3.396-1.132 6.338-9.283 6.112-26.714 5.429-14.488 12.676-2.49-9.281-14.941 5.887-1.131-14.26-10.64 2.714 2.491-31.009zm37.36 11.149l-12.748-1.403 6.375 6.784 5.555.585 2.76-2.457-1.942-3.509z"></path><path d="M14.703 34.74l-8.565 2.494L2.875 54.31h1.977L3.731 79.924l4.094-.701-.351 5.262 6.531-1.403v3.158l26.217-9.942-.765-3.083-15.372 6.236-1.137-14.579-10.845 2.537"></path></g><!----></svg>